PathFileType	4	(X/Y/Z)	two_link_01.trc																
DataRate	CameraRate	NumFrames	NumMarkers	Units	OrigDataRate	OrigDataStartFrame	OrigNumFrames												
60	60	71	6	m	60	1264	2526												
Frame#	Time	Link2_Marker_1			Link2_Marker_2			Link2_Marker_3			Link1_Marker_1			Link1_Marker_2			Link1_Marker_3		
		X1	Y1	Z1	X2	Y2	Z2	X3	Y3	Z3	X4	Y4	Z4	X5	Y5	Z5	X6	Y6	Z6
																			
1264	0.23109306	0.28567343	0.43864937	0	0.28567343	0.43864937	0.1	0.21763257	0.51193266	0	0.0804802	0.24813496	0	0.0804802	0.24813496	0.1	0	0	82.99702926
1265	0.23142543	0.28591188	0.438392	0	0.28591188	0.438392	0.1	0.21796295	0.51176054	0	0.08047998	0.24813499	0	0.08047998	0.24813499	0.1	0	0	82.9970814
1266	0.232	0.28636632	0.43794504	0	0.28636632	0.43794504	0.1	0.21857497	0.5114592	0	0.08052666	0.24812925	0	0.08052666	0.24812925	0.1	0	0	82.98630235
1267	0.23201337	0.2863775	0.43793461	0	0.2863775	0.43793461	0.1	0.2185898	0.51145214	0	0.08052843	0.24812903	0	0.08052843	0.24812903	0.1	0	0	82.98589325
1268	0.23202674	0.28638866	0.43792418	0	0.28638866	0.43792418	0.1	0.2186046	0.51144507	0	0.08053017	0.24812881	0	0.08053017	0.24812881	0.1	0	0	82.98549047
1269	0.23209359	0.28644397	0.4378721	0	0.28644397	0.4378721	0.1	0.21867815	0.5114098	0	0.08053841	0.2481278	0	0.08053841	0.2481278	0.1	0	0	82.98358825
1270	0.23242783	0.2867089	0.43761243	0	0.2867089	0.43761243	0.1	0.21903454	0.5112343	0	0.08056766	0.2481242	0	0.08056766	0.2481242	0.1	0	0	82.97683365
1271	0.233	0.28711742	0.4371708	0	0.28711742	0.4371708	0.1	0.2196006	0.51093719	0	0.08057153	0.24812372	0	0.08057153	0.24812372	0.1	0	0	82.97594098
1272	0.23301362	0.28712647	0.43716033	0	0.28712647	0.43716033	0.1	0.21961342	0.51093016	0	0.08057093	0.2481238	0	0.08057093	0.2481238	0.1	0	0	82.97607791
1273	0.23302723	0.28713555	0.43714986	0	0.28713555	0.43714986	0.1	0.21962626	0.51092314	0	0.08057037	0.24812387	0	0.08057037	0.24812387	0.1	0	0	82.97620855
1274	0.23309532	0.28718138	0.4370975	0	0.28718138	0.4370975	0.1	0.2196909	0.51088798	0	0.08056803	0.24812415	0	0.08056803	0.24812415	0.1	0	0	82.97674942
1275	0.23343574	0.28742141	0.43683517	0	0.28742141	0.43683517	0.1	0.2200246	0.51071121	0	0.08056849	0.2481241	0	0.08056849	0.2481241	0.1	0	0	82.97664228
1276	0.234	0.28785884	0.43639892	0	0.28785884	0.43639892	0.1	0.22061583	0.51041499	0	0.08061385	0.2481185	0	0.08061385	0.2481185	0.1	0	0	82.96616804
1277	0.23401385	0.28787016	0.4363882	0	0.28787016	0.4363882	0.1	0.22063091	0.51040767	0	0.08061564	0.24811828	0	0.08061564	0.24811828	0.1	0	0	82.96575551
1278	0.23402769	0.28788146	0.43637748	0	0.28788146	0.43637748	0.1	0.22064596	0.51040036	0	0.08061739	0.24811807	0	0.08061739	0.24811807	0.1	0	0	82.96534985
1279	0.23409693	0.28793746	0.43632391	0	0.28793746	0.43632391	0.1	0.22072072	0.51036384	0	0.08062568	0.24811704	0	0.08062568	0.24811704	0.1	0	0	82.96343617
1280	0.23444309	0.28820548	0.43605677	0	0.28820548	0.43605677	0.1	0.22108287	0.51018203	0	0.08065474	0.24811346	0	0.08065474	0.24811346	0.1	0	0	82.95672627
1281	0.235	0.28859492	0.43562922	0	0.28859492	0.43562922	0.1	0.22162485	0.50989233	0	0.08065821	0.24811303	0	0.08065821	0.24811303	0.1	0	0	82.95592527
1282	0.23502248	0.28860963	0.43561201	0	0.28860963	0.43561201	0.1	0.22164574	0.5098807	0	0.0806573	0.24811314	0	0.0806573	0.24811314	0.1	0	0	82.95613497
1283	0.23504495	0.28862441	0.43559481	0	0.28862441	0.43559481	0.1	0.22166671	0.50986907	0	0.08065648	0.24811324	0	0.08065648	0.24811324	0.1	0	0	82.95632462
1284	0.23515733	0.28869946	0.43550873	0	0.28869946	0.43550873	0.1	0.22177262	0.50981081	0	0.08065365	0.24811359	0	0.08065365	0.24811359	0.1	0	0	82.95697837
1285	0.23571921	0.28910297	0.43507745	0	0.28910297	0.43507745	0.1	0.22232938	0.50951728	0	0.08067147	0.24811139	0	0.08067147	0.24811139	0.1	0	0	82.95286224
1286	0.236	0.28932208	0.43486155	0	0.28932208	0.43486155	0.1	0.22262432	0.50936933	0	0.08070031	0.24810782	0	0.08070031	0.24810782	0.1	0	0	82.94620218
1287	0.23602277	0.28934028	0.43484404	0	0.28934028	0.43484404	0.1	0.22264865	0.5093573	0	0.08070316	0.24810747	0	0.08070316	0.24810747	0.1	0	0	82.94554499
1288	0.23604554	0.28935841	0.43482654	0	0.28935841	0.43482654	0.1	0.2226729	0.50934529	0	0.08070592	0.24810713	0	0.08070592	0.24810713	0.1	0	0	82.94490729
1289	0.23615938	0.28944777	0.43473908	0	0.28944777	0.43473908	0.1	0.22279295	0.50928527	0	0.08071842	0.24810558	0	0.08071842	0.24810558	0.1	0	0	82.94201901
1290	0.23672858	0.28986352	0.4343032	0	0.28986352	0.4343032	0.1	0.22336304	0.5089871	0	0.08074859	0.24810184	0	0.08074859	0.24810184	0.1	0	0	82.93505299
1291	0.237	0.29004367	0.43409609	0	0.29004367	0.43409609	0.1	0.22361736	0.50884597	0	0.080744	0.24810241	0	0.080744	0.24810241	0.1	0	0	82.93611239
1292	0.23702297	0.29005845	0.43407858	0	0.29005845	0.43407858	0.1	0.22363843	0.50883405	0	0.08074313	0.24810252	0	0.08074313	0.24810252	0.1	0	0	82.93631464
1293	0.23704594	0.2900733	0.43406107	0	0.2900733	0.43406107	0.1	0.22365957	0.50882213	0	0.08074233	0.24810262	0	0.08074233	0.24810262	0.1	0	0	82.93649742
1294	0.23716077	0.29014872	0.43397348	0	0.29014872	0.43397348	0.1	0.22376638	0.50876242	0	0.08073968	0.24810295	0	0.08073968	0.24810295	0.1	0	0	82.93711105
1295	0.23773496	0.29055412	0.43353493	0	0.29055412	0.43353493	0.1	0.22432757	0.50846186	0	0.08075874	0.24810058	0	0.08075874	0.24810058	0.1	0	0	82.93270787
1296	0.238	0.29075698	0.43333238	0	0.29075698	0.43333238	0.1	0.22460158	0.50832212	0	0.08078569	0.24809724	0	0.08078569	0.24809724	0.1	0	0	82.92648555
1297	0.23802335	0.29077526	0.43331453	0	0.29077526	0.43331453	0.1	0.2246261	0.50830979	0	0.08078854	0.24809689	0	0.08078854	0.24809689	0.1	0	0	82.9258278
1298	0.23807987	0.29081914	0.43327137	0	0.29081914	0.43327137	0.1	0.22468511	0.50827997	0	0.08079506	0.24809608	0	0.08079506	0.24809608	0.1	0	0	82.92432035
1299	0.23836242	0.29103117	0.43305584	0	0.29103117	0.43305584	0.1	0.22497301	0.50813126	0	0.08081998	0.24809298	0	0.08081998	0.24809298	0.1	0	0	82.91856556
1300	0.239	0.29146489	0.43257093	0	0.29146489	0.43257093	0.1	0.22557951	0.50779803	0	0.08082901	0.24809186	0	0.08082901	0.24809186	0.1	0	0	82.91648056
1301	0.23902352	0.29147978	0.43255307	0	0.29147978	0.43255307	0.1	0.22560082	0.50778579	0	0.08082817	0.24809197	0	0.08082817	0.24809197	0.1	0	0	82.91667537
1302	0.23905632	0.29150067	0.43252816	0	0.29150067	0.43252816	0.1	0.22563065	0.50776871	0	0.08082714	0.2480921	0	0.08082714	0.2480921	0.1	0	0	82.91691315
1303	0.23922031	0.29160737	0.43240357	0	0.29160737	0.43240357	0.1	0.22578195	0.50768315	0	0.08082455	0.24809242	0	0.08082455	0.24809242	0.1	0	0	82.91751074
1304	0.24	0.29216486	0.43181102	0	0.29216486	0.43181102	0.1	0.22654904	0.50727336	0	0.08087032	0.24808673	0	0.08087032	0.24808673	0.1	0	0	82.90694024
1305	0.240024	0.29218325	0.4317928	0	0.29218325	0.4317928	0.1	0.22657381	0.50726068	0	0.08087317	0.24808637	0	0.08087317	0.24808637	0.1	0	0	82.90628134
1306	0.240048	0.29220155	0.43177457	0	0.29220155	0.43177457	0.1	0.2265985	0.50724801	0	0.08087593	0.24808603	0	0.08087593	0.24808603	0.1	0	0	82.90564364
1307	0.240168	0.29229178	0.43168352	0	0.29229178	0.43168352	0.1	0.22672069	0.50718473	0	0.08088839	0.24808448	0	0.08088839	0.24808448	0.1	0	0	82.90276567
1308	0.240768	0.29271129	0.43122903	0	0.29271129	0.43122903	0.1	0.22730124	0.5068698	0	0.08091714	0.24808089	0	0.08091714	0.24808089	0.1	0	0	82.89612566
1309	0.241	0.29285951	0.43105351	0	0.29285951	0.43105351	0.1	0.22751232	0.50674859	0	0.0809133	0.24808137	0	0.0809133	0.24808137	0.1	0	0	82.89701432
1310	0.24102414	0.29287455	0.43103526	0	0.29287455	0.43103526	0.1	0.22753391	0.50673599	0	0.08091249	0.24808147	0	0.08091249	0.24808147	0.1	0	0	82.89719996
1311	0.24104828	0.29288967	0.43101699	0	0.29288967	0.43101699	0.1	0.22755559	0.50672339	0	0.08091178	0.24808156	0	0.08091178	0.24808156	0.1	0	0	82.89736497
1312	0.24116897	0.29296643	0.43092569	0	0.29296643	0.43092569	0.1	0.22766506	0.50666029	0	0.08090954	0.24808184	0	0.08090954	0.24808184	0.1	0	0	82.89788293
1313	0.24177242	0.2933788	0.43046928	0	0.2933788	0.43046928	0.1	0.22823945	0.50634329	0	0.08093159	0.24807909	0	0.08093159	0.24807909	0.1	0	0	82.8927899
1314	0.242	0.29354649	0.4302974	0	0.29354649	0.4302974	0.1	0.22846751	0.5062232	0	0.08095426	0.24807627	0	0.08095426	0.24807627	0.1	0	0	82.88755422
1315	0.24201387	0.2935569	0.43028693	0	0.2935569	0.43028693	0.1	0.22848159	0.50621587	0	0.08095587	0.24807606	0	0.08095587	0.24807606	0.1	0	0	82.88718122
1316	0.24202774	0.29356729	0.43027647	0	0.29356729	0.43027647	0.1	0.22849565	0.50620855	0	0.08095746	0.24807587	0	0.08095746	0.24807587	0.1	0	0	82.88681453
1317	0.2420971	0.29361882	0.43022415	0	0.29361882	0.43022415	0.1	0.22856553	0.50617195	0	0.08096496	0.24807493	0	0.08096496	0.24807493	0.1	0	0	82.88508133
1318	0.2424439	0.29386633	0.42996273	0	0.29386633	0.42996273	0.1	0.22890521	0.50598939	0	0.08099169	0.24807159	0	0.08099169	0.24807159	0.1	0	0	82.87890886
1319	0.243	0.29422838	0.4295438	0	0.29422838	0.4295438	0.1	0.22941664	0.50569784	0	0.08099706	0.24807092	0	0.08099706	0.24807092	0.1	0	0	82.87766783
1320	0.24301384	0.29423687	0.42953337	0	0.29423687	0.42953337	0.1	0.22942887	0.5056906	0	0.08099663	0.24807098	0	0.08099663	0.24807098	0.1	0	0	82.8777681
1321	0.24302768	0.29424538	0.42952294	0	0.29424538	0.42952294	0.1	0.22944112	0.50568335	0	0.08099622	0.24807103	0	0.08099622	0.24807103	0.1	0	0	82.87786206
1322	0.24309689	0.29428829	0.4294708	0	0.29428829	0.4294708	0.1	0.22950272	0.50564712	0	0.0809946	0.24807123	0	0.0809946	0.24807123	0.1	0	0	82.8782362
1323	0.24344291	0.29451182	0.42921018	0	0.29451182	0.42921018	0.1	0.22981923	0.50546546	0	0.08099701	0.24807093	0	0.08099701	0.24807093	0.1	0	0	82.87767929
1324	0.244	0.29490259	0.42879147	0	0.29490259	0.42879147	0.1	0.23035773	0.50517184	0	0.08103755	0.24806586	0	0.08103755	0.24806586	0.1	0	0	82.86831659
1325	0.24401443	0.29491319	0.42878064	0	0.29491319	0.42878064	0.1	0.23037213	0.50516422	0	0.08103918	0.24806566	0	0.08103918	0.24806566	0.1	0	0	82.86794073
1326	0.24402887	0.29492377	0.42876982	0	0.29492377	0.42876982	0.1	0.2303865	0.5051566	0	0.08104078	0.24806546	0	0.08104078	0.24806546	0.1	0	0	82.86757117
1327	0.24410104	0.29497622	0.42871571	0	0.29497622	0.42871571	0.1	0.23045794	0.50511853	0	0.08104833	0.24806451	0	0.08104833	0.24806451	0.1	0	0	82.86582766
1328	0.2444619	0.2952281	0.42844524	0	0.2952281	0.42844524	0.1	0.23080522	0.50492852	0	0.0810749	0.24806118	0	0.0810749	0.24806118	0.1	0	0	82.85969071
1329	0.245	0.29557191	0.42804173	0	0.29557191	0.42804173	0.1	0.23129291	0.50464598	0	0.08108002	0.24806054	0	0.08108002	0.24806054	0.1	0	0	82.85850812
1330	0.24501443	0.29558063	0.4280309	0	0.29558063	0.4280309	0.1	0.23130552	0.50463841	0	0.08107961	0.24806059	0	0.08107961	0.24806059	0.1	0	0	82.85860266
1331	0.24502887	0.29558937	0.42802007	0	0.29558937	0.42802007	0.1	0.23131815	0.50463084	0	0.08107922	0.24806064	0	0.08107922	0.24806064	0.1	0	0	82.85869089
1332	0.24510103	0.29563347	0.42796592	0	0.29563347	0.42796592	0.1	0.23138166	0.50459296	0	0.08107775	0.24806083	0	0.08107775	0.24806083	0.1	0	0	82.85903066
1333	0.24546186	0.2958632	0.42769539	0	0.2958632	0.42769539	0.1	0.23170784	0.50440321	0	0.0810813	0.24806038	0	0.0810813	0.24806038	0.1	0	0	82.8582119
1334	0.246	0.29623379	0.4272932	0	0.29623379	0.4272932	0.1	0.23222033	0.50411948	0	0.08112023	0.2480555	0	0.08112023	0.2480555	0.1	0	0	82.84922048
